<?xml version="1.0" encoding="utf-8"?>
<!-- Generator: Adobe Illustrator 26.0.0, SVG Export Plug-In . SVG Version: 6.00 Build 0)  -->
<svg width="116px" height="46px" version="1.1" id="Layer_1" xmlns="http://www.w3.org/2000/svg" xmlns:xlink="http://www.w3.org/1999/xlink" x="0px" y="0px"
	 viewBox="0 0 116 46" style="enable-background:new 0 0 116 46;" xml:space="preserve">
<style type="text/css">
	.st0{fill:none;stroke:#333333;stroke-width:2;}
	.st1{fill:#333333;}
</style>
<g>
	<rect id="Rectangle" x="1" y="1" class="st0" width="114" height="44"/>
	<g>
		<path class="st1" d="M44.7,26.35l0.1,0.5c0,0.2-0.1,0.5-0.4,0.8c-0.6,0.8-1.6,1.8-3,2.8c-1.4,1.1-2.4,1.6-3.1,1.6
			c-0.7,0-1.2-0.2-1.5-0.6s-0.6-0.8-0.6-1.3c0-0.6,0.6-1.9,1.9-3.9c1.9-3,4.2-6.5,7.1-10.5c-0.6,0.6-2.2,2.3-4.8,5.1
			c-5.8,6.1-9.2,9.5-10.2,10.3c-0.2,0.1-0.4,0.2-0.7,0.2s-0.6-0.1-1-0.4c-0.3-0.3-0.5-0.5-0.5-0.8v-0.1c0-0.4,1-2.4,2.8-5.9
			s3.3-6.3,4.5-8.4c-1.8,2-3.6,4.2-5.4,6.6c-3.5,4.6-6,8.6-7.7,11.8c-0.1,0.3-0.3,0.5-0.5,0.5s-0.5-0.1-0.9-0.2
			c-0.8-0.2-1.3-0.6-1.3-1.2c0-0.3,0.7-1.6,2.1-3.7c1.4-2.1,3-4.4,4.9-6.9c1.8-2.5,3.8-4.9,5.7-7.2c2.7-3.2,4.5-4.8,5.3-4.8
			c0.1,0,0.2,0,0.4,0.1c0.1,0.1,0.2,0.1,0.2,0.1h0.1c0.1-0.2,0.4-0.2,0.7-0.2s0.7,0.1,1.1,0.2s0.5,0.3,0.5,0.5c0,0.1-0.5,1-1.4,2.7
			c-3.2,5.6-5.3,9.5-6.4,11.6c1-1.3,2.5-2.9,4.5-5c1.9-2.1,4-4.2,6.1-6.3c2.8-2.7,4.4-4,5-4c0.2,0,0.5,0,0.8,0.1
			c0.6,0.2,1.2,0.3,1.7,0.3c0.2,0,0.3,0.1,0.4,0.2c0.1,0.1,0.2,0.2,0.2,0.3s0,0.2-0.1,0.3c-3.1,4.1-5.7,7.7-7.8,10.9
			s-3.4,5.3-3.9,6.4c1-0.2,2.5-1.4,4.5-3.6c0.1-0.1,0.1-0.2,0.2-0.2s0.1-0.1,0.1-0.1c0.2-0.2,0.3-0.1,0.4,0.4c0,0.2,0.1,0.4,0.1,0.5
			s0,0.2,0,0.3C44.7,26.25,44.7,26.35,44.7,26.35z"/>
		<path class="st1" d="M66.5,21.25c0,0.4-0.3,1-0.8,1.9c-0.5,0.9-1,1.6-1.5,2.2c-0.2,0.3-0.5,0.5-0.8,0.5c-0.3,0-0.5-0.1-0.7-0.3
			c-0.2-0.2-0.2-0.5-0.2-0.8c0-0.7,0.4-1.4,1.1-2.2c-0.3,0-1.1,0.6-2.3,1.9l-3.2,3.2c-0.9,1-1.8,2.1-2.8,3.5
			c-0.3,0.4-0.5,0.6-0.7,0.6c-0.2,0-0.5-0.1-0.8-0.2c-0.3-0.1-0.5-0.2-0.6-0.3c-0.1-0.1-0.1-0.2-0.1-0.3c0-0.08,0-0.23,0.06-0.39
			c-1.54,1.01-3.06,1.49-4.46,1.49c-1,0-1.7-0.1-2.3-0.4c-1.1-0.5-1.6-1.2-1.6-2.2c0-1.3,0.9-2.3,2.7-3c-0.4-0.2-0.6-0.4-0.7-0.6
			c-0.1-0.3-0.2-0.7-0.2-1.2c0-0.6,0.3-1.1,0.8-1.8c0.5-0.6,1.2-1.1,1.9-1.5c1.7-0.9,3.2-1.4,4.5-1.4c0.3,0,0.6,0.1,1,0.2
			c0.4,0.1,0.5,0.5,0.5,0.8c0,0.6-0.3,1.2-0.8,1.7s-1.1,0.7-1.7,0.7c-0.2,0-0.3,0-0.4-0.1c-0.1-0.1-0.1-0.2-0.1-0.4
			c0-0.2,0-0.3,0.1-0.5c-0.3,0.1-0.7,0.3-1.1,0.5c-0.4,0.2-0.9,0.6-1.5,1.1c-0.6,0.5-0.9,0.8-0.9,1c0,0.1,0.1,0.1,0.3,0.1
			c0.2,0,0.6-0.1,1-0.2c0.5-0.2,0.8-0.2,1-0.2h0.4c0.1,0.1,0.3,0.2,0.4,0.4v0.5c0,0.1-0.1,0.3-0.4,0.5c-0.3,0.2-0.5,0.4-0.8,0.5
			c-0.3,0.1-0.5,0.2-0.6,0.2c-2,1.1-3,1.9-3,2.3c0,0.7,0.6,1.1,1.9,1.1c0.8,0,1.6-0.3,2.4-0.8c0.7-0.4,1.3-0.9,1.9-1.3
			c0.6-0.5,0.9-0.7,1.1-0.8c0.2-0.1,0.3-0.2,0.3-0.2c0.09,0,0.18,0.06,0.25,0.17c0.37-0.63,0.84-1.42,1.35-2.37
			c0.9-1.5,1.4-2.3,1.6-2.7c0.4-0.6,0.7-1.1,0.9-1.4c0.4-0.5,1.2-0.8,2.2-0.8c0.2,0,0.3,0.1,0.3,0.4c0,0.4-0.4,1.3-1.2,2.5l-0.8,1
			c2.2-2.5,4.2-3.8,5.7-3.8c0.4,0,0.7,0.1,1,0.3C66.4,20.55,66.5,20.85,66.5,21.25z"/>
		<path class="st1" d="M96.4,27.45c0-0.2-0.1-0.3-0.4-0.3c-0.1,0-0.2,0-0.3,0.1c-0.2,0.2-0.6,0.7-1.4,1.4c-1,0.9-1.7,1.4-2.2,1.4
			c-0.3,0-0.5-0.2-0.5-0.6c0-0.4,0.9-2.5,2.8-6.1c0.6-1.2,0.9-1.9,0.9-2.1c0-0.5-0.1-0.9-0.5-1c-0.4-0.1-0.8-0.2-1.2-0.2
			s-1,0.3-1.9,0.9c-1.4,1-2.8,2.4-4.3,4.2c1.5-3.1,3.8-7,6.8-11.7l1.6-2.3c0.1-0.1,0.1-0.3,0.1-0.4v-0.4c-0.1-0.1-0.2-0.2-0.4-0.2
			c-1,0-1.7,0.3-2.1,0.8c-0.6,0.8-1.5,2.1-2.5,3.9c-2.85,5.12-5.13,9.27-6.62,12.54c-0.01,0.01-0.01,0.01-0.01,0.01
			c-0.03,0.01-0.05,0.03-0.07,0.05c-2.6,2.4-4.7,4.2-6.1,5.4c0.9-1.9,2.5-4.8,4.9-8.8c0.8-1.4,1.2-2.1,1.3-2.3
			c0.1-0.2,0.1-0.3,0.1-0.4c0-0.1,0-0.2-0.1-0.3c-0.1-0.1-0.1-0.1-0.2-0.2c-0.1-0.1-0.2-0.1-0.5-0.2c-0.3-0.1-0.5-0.1-0.6-0.1
			s-0.2,0-0.3,0.1c-0.1,0-0.1,0.1-0.2,0.1s-0.1,0.1-0.2,0.2c-0.1,0.1-0.1,0.1-0.2,0.2c-0.1,0.1-0.1,0.2-0.2,0.3
			c-0.1,0.1-0.1,0.2-0.2,0.3c0,0.1-0.1,0.2-0.2,0.3c-0.7,1.1-1.6,2.2-2.8,3.5c-1,1.1-2,2.1-2.9,2.8c-0.9,0.7-1.4,1.1-1.7,1.1
			c-0.1,0-0.1,0-0.1-0.1c0-0.4,0.7-1.6,1.9-3.9c1.3-2.2,1.9-3.5,1.9-3.8s-0.1-0.6-0.4-0.8c-0.3-0.2-0.5-0.3-0.7-0.3
			c-0.1,0-0.3,0.1-0.5,0.4c-0.2,0.3-0.4,0.8-0.8,1.5s-0.8,1.3-1.1,1.8c-0.4,0.6-0.8,1.3-1.2,2c-0.4,0.7-0.7,1.2-0.9,1.5
			c-0.16,0.25-0.28,0.51-0.38,0.78c-0.01,0.01-0.01,0.01-0.02,0.02c-0.4,0.4-0.8,0.7-1.3,1s-0.9,0.5-1.4,0.5s-0.8-0.1-1.1-0.4
			c-0.3-0.2-0.4-0.5-0.4-0.8c0-0.3,0-0.6,0.1-0.9c0.1-0.3,0.1-0.5,0.1-0.6c1.6-1.7,3.1-3.6,4.8-5.7c1-1.4,2-2.6,2.8-3.8
			c0.8-1.2,1.5-2.4,2.1-3.5c0.6-1.1,0.9-2,0.9-2.5s-0.2-0.9-0.5-1.2c-0.3-0.3-0.7-0.4-1.1-0.4c-1.5,0-3.6,2-6.4,6
			c-1.3,1.8-2.4,3.9-3.4,6.4s-1.5,4.6-1.5,6.5c0,0.9,0.2,1.7,0.7,2.2c0.4,0.5,1.1,0.8,2,0.8c0.9,0,1.8-0.2,2.8-0.7
			c0.2-0.1,0.4-0.21,0.59-0.33c0.07,0.24,0.2,0.43,0.41,0.53c0.4,0.3,0.7,0.4,1.1,0.4h0.1c0.8,0,1.6-0.4,2.3-1s1.6-1.4,2.5-2.4
			c-1.3,2.6-2,3.9-2.1,4c0,0.1-0.4,0.4-1,1c-0.6,0.6-1.1,1.2-1.5,1.7c-1.1,1.4-1.6,2.6-1.6,3.6c0,0.9,0.4,1.3,1.3,1.3h0.5
			c0.3,0,0.6-0.2,1-0.6c0.4-0.4,0.7-0.9,1-1.3c0.3-0.4,0.6-0.9,0.8-1.3c0.2-0.4,0.4-0.7,0.4-0.7c1.91-2.06,3.93-3.95,6.03-5.61
			c-0.26,0.68-0.43,1.02-0.43,1.11c0,0.1,0.1,0.1,0.2,0.1s0.2,0,0.3,0.1s0.3,0.1,0.4,0.1c0.1,0,0.3-0.1,0.5-0.2
			c0.2-0.1,0.3-0.2,0.4-0.3c0.7-1,2-2.6,4.1-4.9c2.1-2.3,3.5-3.7,4.2-4.2c-0.1,0.1-0.1,0.2-0.2,0.3c-2.2,3.6-3.2,6-3.2,7.2
			c0,1.4,0.8,2.1,2.4,2.1c1.1,0,2.2-0.4,3.2-1.2c0.4-0.3,0.8-0.7,1.1-1c0.3-0.4,0.5-0.6,0.6-0.8s0.1-0.5,0.1-0.7
			S96.5,27.85,96.4,27.45z M70.3,19.75c0.7-1.1,1.7-2.6,3.1-4.5c1.4-1.9,2.3-2.9,2.6-2.9c0.1,0,0.1,0.1,0.1,0.2c0,0.7-1,2.4-2.9,5.3
			c-2,2.8-3.6,4.9-4.7,6.2C69.1,22.35,69.7,20.85,70.3,19.75z"/>
	</g>
</g>
</svg>
